<?xml version="1.0" encoding="UTF-8"?>
<svg width="31px" height="31px" viewBox="0 0 31 31" version="1.1" xmlns="http://www.w3.org/2000/svg" xmlns:xlink="http://www.w3.org/1999/xlink">
    <!-- Generator: Sketch 54.1 (76490) - https://sketchapp.com -->
    <title>Resouces Icon</title>
    <desc>Created with Sketch.</desc>
    <g id="Symbols" stroke="none" stroke-width="1" fill="none" fill-rule="evenodd">
        <g id="App/Nav" transform="translate(-60.000000, -103.000000)" fill="#708EB0" fill-rule="nonzero">
            <g id="Navbar">
                <g id="Resources" transform="translate(2.000000, 99.000000)">
                    <g id="Resouces-Icon" transform="translate(58.000000, 0.000000)">
                        <path d="M30.0315971,35 L0.968661206,35 C0.43439077,34.9983162 0.00170151113,34.5701261 0,34.041411 L0,19 L11.6239345,24.7108896 L11.6239345,27.3297546 C11.6274784,28.3871266 12.4927746,29.2434254 13.5612569,29.2469325 L17.4359017,29.2469325 C18.5050478,29.2444067 19.3713667,28.3877812 19.374774,27.3297546 L19.374774,24.7108896 L31,19 L31,34.041411 C30.9982993,34.5700267 30.5657667,34.998176 30.0315971,35 Z M18,27 L14,27 L14,25 L18,25 L18,27 Z M17.4377745,21.3924435 L13.5630005,21.3924435 C13.0298997,21.3954578 12.5220753,21.6155402 12.1611073,22 L0,16.0831593 L0,12.847921 C0.00170156785,12.3243255 0.434405249,11.9002815 0.968693493,11.898614 L5.81345255,11.898614 C5.81699658,10.8514804 6.68232168,10.0034731 7.75083953,10 L9.68822652,10 C10.7571044,10.0033372 11.6226356,10.8518858 11.6256135,11.8993735 L19.3751614,11.8993735 C19.3787055,10.8522399 20.2440306,10.0042326 21.3125484,10.0007594 L23.2499354,10.0007594 C24.3184533,10.0042326 25.1837784,10.8522399 25.1873224,11.8993735 L30.0313065,11.8993735 C30.5655948,11.901041 30.9982984,12.3250849 31,12.8486805 L31,16.0836656 L18.839926,22 C18.4788969,21.6154759 17.9709653,21.3953876 17.4377745,21.3924435 L17.4377745,21.3924435 Z M18.3607986,6.01666166 L12.6599777,5.9990699 C11.4558774,5.999437 10.3823357,6.79702897 9.97932502,7.99067103 L8,7.98480711 C8.46030621,5.66079796 10.4089483,3.99648206 12.6655518,4.00000558 L18.3663728,4.01759735 C20.6103603,4.02949772 22.5414027,5.6891454 23,8 L21.0161143,8 C20.6136409,6.81892068 19.5536842,6.02723671 18.361052,6.0169282 L18.3607986,6.01666166 Z" id="Shape"></path>
                    </g>
                </g>
            </g>
        </g>
    </g>
</svg>